<?xml version="1.0" standalone="no"?>
<!DOCTYPE svg PUBLIC "-//W3C//DTD SVG 20010904//EN"
 "http://www.w3.org/TR/2001/REC-SVG-20010904/DTD/svg10.dtd">
<svg version="1.0" xmlns="http://www.w3.org/2000/svg"
 width="4106.000000pt" height="3765.000000pt" viewBox="0 0 4106.000000 3765.000000"
 preserveAspectRatio="xMidYMid meet">
<metadata>
Created by potrace 1.15, written by Peter Selinger 2001-2017
</metadata>
<g transform="translate(0.000000,3765.000000) scale(0.100000,-0.100000)"
fill="#FFFFFFFF" stroke="none">
<path d="M27335 37634 c-959 -107 -1886 -537 -2735 -1268 -153 -132 -492 -469
-640 -636 -1237 -1400 -2003 -3330 -2121 -5343 -15 -265 -7 -973 15 -1207 92
-988 320 -1828 707 -2602 636 -1271 1636 -2127 2824 -2418 467 -114 966 -138
1456 -70 1553 217 3053 1333 4081 3040 678 1125 1113 2453 1247 3805 35 352
44 590 38 1007 -6 401 -12 506 -47 823 -196 1734 -938 3209 -2048 4072 -549
427 -1186 694 -1882 789 -174 24 -713 29 -895 8z"/>
<path d="M12790 37520 c-796 -69 -1501 -360 -2148 -886 -124 -100 -483 -459
-591 -589 -735 -887 -1214 -2061 -1380 -3380 -49 -388 -55 -506 -56 -1045 0
-551 8 -689 61 -1110 295 -2344 1472 -4417 3124 -5503 1266 -832 2695 -973
3935 -388 1373 648 2396 2158 2744 4051 94 511 133 947 133 1500 0 354 -11
582 -43 897 -229 2278 -1312 4361 -2874 5526 -687 513 -1424 821 -2185 912
-160 19 -571 27 -720 15z"/>
<path d="M3730 27410 c-1165 -54 -2203 -653 -2878 -1662 -402 -601 -675 -1343
-791 -2143 -50 -343 -55 -437 -56 -925 0 -498 7 -613 61 -988 199 -1395 800
-2750 1692 -3812 1118 -1332 2606 -2091 4012 -2047 546 17 1041 141 1517 381
1645 827 2526 2892 2232 5231 -106 842 -366 1689 -760 2477 -953 1903 -2612
3229 -4329 3458 -131 17 -197 22 -470 34 -41 1 -145 0 -230 -4z"/>
<path d="M36805 27370 c-466 -41 -941 -155 -1395 -335 -301 -119 -722 -339
-1020 -533 -667 -434 -1304 -1045 -1804 -1730 -1177 -1613 -1697 -3613 -1401
-5385 339 -2024 1702 -3397 3520 -3548 205 -17 668 -6 862 20 1495 203 2928
1116 3988 2541 571 768 1015 1684 1264 2605 122 453 200 928 232 1405 15 228
6 812 -16 1015 -109 1029 -438 1881 -993 2577 -189 236 -478 511 -728 691
-322 231 -721 426 -1101 537 -169 50 -434 104 -613 126 -157 19 -640 27 -795
14z"/>
<path d="M19715 22964 c-1022 -41 -1908 -326 -2760 -888 -682 -450 -1355
-1087 -2071 -1961 -444 -541 -819 -1051 -1754 -2380 -879 -1250 -1347 -1876
-1884 -2520 -586 -703 -1116 -1248 -1771 -1819 -925 -807 -1698 -1700 -2295
-2650 -843 -1343 -1325 -2759 -1419 -4170 -14 -204 -14 -709 -1 -908 111
-1632 772 -3051 1928 -4142 1343 -1265 2903 -1712 4997 -1431 767 104 1546
281 3085 705 1553 427 2405 615 3205 704 1028 115 2124 46 3415 -215 618 -125
1091 -245 2315 -584 1475 -408 2059 -543 2775 -639 412 -56 501 -61 1030 -61
519 0 573 3 908 51 1092 155 2164 663 3102 1468 135 115 500 480 616 616 842
979 1311 2134 1415 3480 15 197 16 728 0 930 -99 1320 -523 2598 -1284 3865
-639 1066 -1464 2037 -2532 2984 -730 647 -1241 1182 -1828 1916 -551 688
-968 1287 -1793 2575 -691 1079 -962 1485 -1269 1907 -779 1067 -1509 1773
-2345 2270 -976 579 -2111 871 -3490 896 -118 2 -251 3 -295 1z"/>
</g>
</svg>
